<?xml version="1.0" encoding="UTF-8" standalone="no"?>
<!-- Created with Inkscape (http://www.inkscape.org/) -->

<svg
   width="500"
   height="500"
   viewBox="0 0 132.29166 132.29167"
   version="1.1"
   id="svg1"
   xml:space="preserve"
   sodipodi:docname="hibernate-hover.svg"
   inkscape:version="1.4.2 (ebf0e940d0, 2025-05-08)"
   xmlns:inkscape="http://www.inkscape.org/namespaces/inkscape"
   xmlns:sodipodi="http://sodipodi.sourceforge.net/DTD/sodipodi-0.dtd"
   xmlns="http://www.w3.org/2000/svg"
   xmlns:svg="http://www.w3.org/2000/svg"><sodipodi:namedview
     id="namedview1"
     pagecolor="#ffffff"
     bordercolor="#000000"
     borderopacity="0.25"
     inkscape:showpageshadow="2"
     inkscape:pageopacity="0.0"
     inkscape:pagecheckerboard="0"
     inkscape:deskcolor="#d1d1d1"
     showgrid="true"
     inkscape:zoom="2.6332657"
     inkscape:cx="117.53466"
     inkscape:cy="206.77746"
     inkscape:window-width="3816"
     inkscape:window-height="2078"
     inkscape:window-x="0"
     inkscape:window-y="0"
     inkscape:window-maximized="1"
     inkscape:current-layer="layer1"><inkscape:grid
       id="grid1"
       units="px"
       originx="0"
       originy="0"
       spacingx="0.26458332"
       spacingy="0.26458334"
       empcolor="#0099e5"
       empopacity="0.30196078"
       color="#0099e5"
       opacity="0.14901961"
       empspacing="5"
       enabled="true"
       visible="true" /></sodipodi:namedview><defs
     id="defs1" /><g
     id="layer1"
     style="display:inline"><g
       id="g24"
       transform="matrix(2.3902084,0,0,2.3902084,-95.376645,-92.213643)"
       style="fill:#111118;fill-opacity:1"><path
         style="fill:#111118;fill-opacity:1;stroke:none;stroke-width:0.264583"
         d="m 60.324999,66.410418 0.115645,-1.5875 1.207272,-0.529167 1.150374,0.529167 -0.09204,1.852083 -1.214165,0.529167 z"
         id="path1"
         sodipodi:nodetypes="ccccccc" /><path
         style="fill:#111118;fill-opacity:1;stroke:none;stroke-width:0.264583"
         d="m 73.446031,67.204168 -1.214782,-0.667572 v -1.184511 l 0.79375,-0.529167 h 0.731867 l 0.71048,0.79375 0.145153,0.697903 -0.529167,0.889597 z"
         id="path2" /><path
         style="fill:#111118;fill-opacity:1;stroke:none;stroke-width:0.264583"
         d="m 63.764583,69.320835 -2.910417,2.645833 h -3.175 l -0.79375,0.79375 v 6.085417 l 2.645833,8.73125 v 4.497916 l -0.79375,0.529167 v 0.529167 h 2.116667 c 0,0 0.79375,-0.79375 0.79375,-0.79375 h 0.529167 v 0.79375 h 13.758333 l 0.264583,-0.264584 h 1.058333 l 0.264584,0.529167 h 0.529166 v -0.79375 l -1.852083,-3.175 v -3.439583 l 3.175,-7.408333 v -7.14375 l -0.529167,-0.264584 -1.058333,1.058334 h -2.38125 l -2.645833,-2.910417 h -0.79375 v 1.058333 l 1.322916,1.5875 c 0,0 0.264584,1.322917 0.264584,1.322917 l 0.529166,1.058333 -0.264583,1.322917 -1.322917,0.79375 -1.322916,-1.058333 -0.529167,0.79375 c 0,0 1.322917,1.058333 1.322917,1.322916 0,0.264584 0,6.614584 0,6.614584 l -1.322917,1.5875 -0.79375,0.264583 h -5.55625 l -0.79375,-0.529167 -1.058333,-1.5875 v -5.027083 l 1.058333,-2.116667 v -1.058333 l -0.601234,0.264856 -0.457099,0.528894 -0.949582,-0.0013 v -1.105249 l 2.272499,-4.978845 z"
         id="path3" /><path
         style="fill:#111118;fill-opacity:1;stroke:none;stroke-width:0.264583"
         d="m 64.293749,78.316668 v -1.058333 l 2.116667,-1.058333 1.322916,0.529166 1.5875,-0.79375 1.322917,1.5875 v 1.058334 h -1.322917 l -0.529166,0.79375 h -2.116667 l -0.529167,-0.801783 z"
         id="path4" /><path
         style="fill:#111118;fill-opacity:1;stroke:none;stroke-width:0.264583"
         d="m 69.849999,82.285418 -0.529167,0.79375 h -4.233333 l -0.529166,-0.79375 -0.529167,0.264584 v 1.058333 c 0,0 1.058333,1.058333 1.322917,1.058333 0.264583,0 3.968749,0 3.968749,0 l 0.79375,-1.058333 v -1.322917 z"
         id="path5" /><path
         style="fill:#111118;fill-opacity:1;stroke:none;stroke-width:0.264583"
         d="m 65.352083,70.643752 -1.322917,0.644866 v 0.653103 l 1.5875,0.289531 1.852083,2.19728 1.058333,-0.08061 1.322917,-1.322916 2.116667,-1.058334 -0.529167,-1.322916 -0.79375,0.06712 -0.79375,0.462044 h -3.439583 z"
         id="path6" /><path
         style="fill:#111118;fill-opacity:1;stroke:none;stroke-width:0.264583"
         d="m 80.433332,76.200002 -0.529166,-0.529167 v -1.058333 l 0.79375,-0.264584 v -1.058333 l 1.322916,-0.264583 0.529167,-0.529167 v -2.116667 l -0.79375,-0.529166 v -1.058334 l 0.529167,-0.529166 1.058333,0.264583 0.79375,2.38125 v 1.058333 l -2.645833,2.910417 v 1.058333 z"
         id="path7" /><path
         style="fill:#111118;fill-opacity:1;stroke:none;stroke-width:0.264583"
         d="m 55.562499,78.052085 h -1.058333 l -2.38125,-4.7625 -0.275526,-2.645833 0.540109,-0.79375 h 1.322917 l 0.264583,1.058333 -0.79375,0.79375 0.79375,2.116667 1.5875,1.058333 0.529167,1.5875 z"
         id="path8" /><path
         style="fill:#111118;fill-opacity:1;stroke:none;stroke-width:0.264583"
         d="m 55.162018,69.320835 -0.128685,-11.1125 -1.852084,0.529167 v 10.054166 l 0.788279,0.926992 0.270055,1.454258 1.058333,0.264584 0.264583,-0.264584 v -1.322916 z"
         id="path9" /><path
         style="fill:#111118;fill-opacity:1;stroke:none;stroke-width:0.264583"
         d="m 57.943749,86.518752 h -1.322916 v 1.058333 l -6.35,4.7625 h -1.322917 l -0.216442,1.058333 1.010192,0.529167 1.049592,-0.529167 3.580616,-0.883478 3.836459,-3.349855 z"
         id="path10" /><path
         style="fill:#111118;fill-opacity:1;stroke:none;stroke-width:0.264583"
         d="m 77.258332,85.725002 h 1.5875 v 1.852083 l 5.027084,3.96875 2.910416,1.058333 v 0.529167 h -5.027083 l -4.497917,-3.96875 z"
         id="path11" /><path
         style="fill:#111118;fill-opacity:1;stroke:none;stroke-width:0.264583"
         d="m 79.904166,69.203715 v -1.532279 l -0.79375,-0.731851 v -5.027083 l 1.058333,-1.322917 h 1.322917 v 8.202083 l -0.23068,0.529167 -0.827654,0.264583 z"
         id="path12" /><path
         style="fill:#111118;fill-opacity:1;stroke:none;stroke-width:0.264583"
         d="m 57.414583,59.531252 -1.322917,-0.04619 v -2.682068 l 0.529167,-0.446746 v -7.672917 l 1.5875,-0.264583 v 6.614583 l -0.529167,0.529167 0.79375,0.529167 0.79375,-1.058334 V 43.391669 l 0.529167,-0.264584 1.058333,0.529167 v 11.641667 l -0.529167,0.529166 v 5.55625 h -1.322916 z"
         id="path13" /><path
         style="fill:#111118;fill-opacity:1;stroke:none;stroke-width:0.264583"
         d="m 55.562499,51.494597 -1.190625,-0.301432 -0.396875,0.400587 -0.0055,4.924708 0.402347,0.376791 1.190625,0.02511 0.264583,-0.564118 z"
         id="path14" /><path
         style="fill:#111118;fill-opacity:1;stroke:none;stroke-width:0.264583"
         d="m 58.208333,44.714585 -1.5875,-0.264583 v 3.175 l 0.529166,0.264583 1.058334,-0.264583 z"
         id="path15" /><path
         style="fill:#111118;fill-opacity:1;stroke:none;stroke-width:0.264583"
         d="m 63.235416,58.737502 -1.322917,-1.058333 -0.420415,0.04502 v -6.895253 l 0.420415,-0.822682 h 0.659718 l 0.134032,-10.847917 0.529167,-0.529166 0.529167,0.529166 v 10.583334 l -0.264584,0.529166 v 1.322917 l 0.529167,-0.264583 0.264583,-0.529167 h 1.058334 v 1.322917 l -0.529167,0.79375 -0.01508,1.140095 0.544248,0.447405 -1.852084,1.5875 v 1.852083 z"
         id="path16" /><path
         style="fill:#111118;fill-opacity:1;stroke:none;stroke-width:0.264583"
         d="m 65.087499,42.068752 1.058333,-0.529167 v -2.645833 h -1.587499 v 2.645833 z"
         id="path17" /><path
         style="fill:#111118;fill-opacity:1;stroke:none;stroke-width:0.264583"
         d="m 67.733332,43.656252 -1.058333,0.529167 v 8.73125 l 3.175,2.38125 1.058333,-0.529167 V 49.741669 L 69.73122,48.683335 68.130207,48.530517 v -4.270282 z"
         id="path18" /><path
         style="fill:#111118;fill-opacity:1;stroke:none;stroke-width:0.264583"
         d="m 69.320832,40.745835 h 1.322917 v 5.820834 h -1.322917 v -2.910417 l -0.529166,-0.529167 v -1.579737 z"
         id="path19" /><path
         style="fill:#111118;fill-opacity:1;stroke:none;stroke-width:0.264583"
         d="m 73.554166,39.952085 h -1.5875 l -0.264584,0.529167 h -0.529166 v 9.525 l 0.529166,0.79375 h 1.058334 v -0.529167 h 0.79375 z"
         id="path20" /><path
         style="fill:#111118;fill-opacity:1;stroke:none;stroke-width:0.264583"
         d="m 77.522916,60.325002 h -1.5875 l -1.98415,-1.5875 0.132066,-10.31875 0.79375,-1.058333 h 1.322917 v 9.789583 l 1.322917,-0.529167 z"
         id="path21" /><path
         style="fill:#111118;fill-opacity:1;stroke:none;stroke-width:0.264583"
         d="m 79.374999,47.360419 h -1.5875 v 7.14375 l 0.835959,0.79375 -0.04221,1.852083 1.5875,1.322917 h 0.529167 l 0.79375,-0.648253 V 53.84271 h -1.5875 l -0.529167,0.214054 z"
         id="path22" /><path
         style="fill:#111118;fill-opacity:1;stroke:none;stroke-width:0.264583"
         d="m 76.729166,41.539585 -0.79375,-0.79375 h -0.602589 l 0.07342,3.96875 0.264583,0.264584 h 0.79375 l 0.264584,-0.264584 z"
         id="path23" /><path
         style="fill:#111118;fill-opacity:1;stroke:none;stroke-width:0.264583"
         d="m 79.110416,43.481534 -1.058334,0.703885 v 1.5875 l 0.79375,0.529166 h 0.529167 v -2.318162 z"
         id="path24" /></g></g></svg>
