<?xml version="1.0" encoding="UTF-8" standalone="no"?>
<!-- Created with Inkscape (http://www.inkscape.org/) -->

<svg
   width="500"
   height="500"
   viewBox="0 0 132.29166 132.29167"
   version="1.1"
   id="svg1"
   xml:space="preserve"
   sodipodi:docname="lock-hover.svg"
   inkscape:version="1.4.2 (ebf0e940d0, 2025-05-08)"
   xmlns:inkscape="http://www.inkscape.org/namespaces/inkscape"
   xmlns:sodipodi="http://sodipodi.sourceforge.net/DTD/sodipodi-0.dtd"
   xmlns="http://www.w3.org/2000/svg"
   xmlns:svg="http://www.w3.org/2000/svg"><sodipodi:namedview
     id="namedview1"
     pagecolor="#ffffff"
     bordercolor="#000000"
     borderopacity="0.25"
     inkscape:showpageshadow="2"
     inkscape:pageopacity="0.0"
     inkscape:pagecheckerboard="0"
     inkscape:deskcolor="#d1d1d1"
     showgrid="true"
     inkscape:zoom="1.862"
     inkscape:cx="70.622986"
     inkscape:cy="236.57358"
     inkscape:window-width="3816"
     inkscape:window-height="2078"
     inkscape:window-x="0"
     inkscape:window-y="0"
     inkscape:window-maximized="1"
     inkscape:current-layer="layer1"><inkscape:grid
       id="grid1"
       units="px"
       originx="0"
       originy="0"
       spacingx="0.26458332"
       spacingy="0.26458334"
       empcolor="#0099e5"
       empopacity="0.30196078"
       color="#0099e5"
       opacity="0.14901961"
       empspacing="5"
       enabled="true"
       visible="true" /></sodipodi:namedview><defs
     id="defs1"><inkscape:path-effect
       effect="powerclip"
       message=""
       id="path-effect14"
       is_visible="true"
       lpeversion="1"
       inverse="true"
       flatten="false"
       hide_clip="false" /><inkscape:path-effect
       effect="powerclip"
       message=""
       id="path-effect13"
       is_visible="true"
       lpeversion="1"
       inverse="true"
       flatten="false"
       hide_clip="false" /><inkscape:path-effect
       effect="powerclip"
       message=""
       id="path-effect9"
       is_visible="true"
       lpeversion="1"
       inverse="true"
       flatten="false"
       hide_clip="false" /><inkscape:path-effect
       effect="powerclip"
       message=""
       id="path-effect6"
       is_visible="true"
       lpeversion="1"
       inverse="true"
       flatten="false"
       hide_clip="false" /><inkscape:path-effect
       effect="powerclip"
       message=""
       id="path-effect5"
       is_visible="true"
       lpeversion="1"
       inverse="true"
       flatten="false"
       hide_clip="false" /><clipPath
       clipPathUnits="userSpaceOnUse"
       id="clipPath13"><path
         style="display:none;fill:#000000;stroke-width:0.264583"
         d="m 66.939582,71.048154 c -1.322916,-0.139819 -3.2982,-0.674957 -4.292872,-1.243343 -0.734211,-0.483976 -2.215139,-2.477445 -2.321711,-4.981893 0.08881,-2.309066 1.322917,-4.233333 1.852084,-4.822753 1.058333,-0.99808 1.852083,-1.262663 3.439583,-1.79183 1.322916,-0.264583 2.910416,-0.264583 3.584236,0 0.649097,0.264584 1.705155,1.322917 1.705155,1.322917 l -1.172295,1.322917 -0.17762,0.886676 2.273541,0.43624 1.195316,-0.529166 0.509842,1.123124 c 0.283908,0.464376 0.157178,2.581042 -0.106575,3.374792 -0.403267,0.79375 -1.726184,2.645833 -2.415635,3.339259 -0.898049,0.629491 -2.485549,1.423241 -4.073049,1.56306 z"
         id="path13"
         clip-path="none"
         sodipodi:nodetypes="ccccccccccccccc" /><path
         id="lpe_path-effect13"
         style="display:block;fill:#000000;stroke-width:0.264583"
         class="powerclip"
         d="M 48.974999,47.982814 H 84.904166 V 82.417731 H 48.974999 Z m 17.964583,23.06534 c 1.5875,-0.139819 3.175,-0.933569 4.073049,-1.56306 0.689451,-0.693426 2.012368,-2.545509 2.415635,-3.339259 0.263753,-0.79375 0.390483,-2.910416 0.106575,-3.374792 l -0.509842,-1.123124 -1.195316,0.529166 -2.273541,-0.43624 0.17762,-0.886676 1.172295,-1.322917 c 0,0 -1.056058,-1.058333 -1.705155,-1.322917 -0.67382,-0.264583 -2.26132,-0.264583 -3.584236,0 -1.5875,0.529167 -2.38125,0.79375 -3.439583,1.79183 -0.529167,0.58942 -1.763274,2.513687 -1.852084,4.822753 0.106572,2.504448 1.5875,4.497917 2.321711,4.981893 0.994672,0.568386 2.969956,1.103524 4.292872,1.243343 z" /></clipPath><clipPath
       clipPathUnits="userSpaceOnUse"
       id="clipPath14"><path
         style="display:none;fill:#111118;stroke-width:0.264583"
         d="m 67.997916,62.970835 c -0.452149,-0.219794 -1.68964,-0.144436 -2.116667,0 -0.370509,0.194675 -0.76863,0.921007 -0.79375,1.322917 0,0 0.01339,0.782021 0.264584,1.058333 0.08792,0.119317 0.429519,0.416129 0.793749,0.491488 0.251193,0.113037 1.047436,0.08164 1.5875,0.03768 0.238633,-0.02511 0.624195,-0.278802 0.79375,-0.79375 0.175835,-0.207232 0.163275,-1.027764 0,-1.322917 0,0 -0.221453,-0.573955 -0.529166,-0.793751 z"
         id="path14"
         sodipodi:nodetypes="ccccccccc" /><path
         id="lpe_path-effect14"
         style="display:block;fill:#111118;stroke-width:0.264583"
         class="powerclip"
         d="m 58.725776,56.024319 h 16.729143 v 16.50157 H 58.725776 Z m 9.27214,6.946516 c -0.452149,-0.219794 -1.68964,-0.144436 -2.116667,0 -0.370509,0.194675 -0.76863,0.921007 -0.79375,1.322917 0,0 0.01339,0.782021 0.264584,1.058333 0.08792,0.119317 0.429519,0.416129 0.793749,0.491488 0.251193,0.113037 1.047436,0.08164 1.5875,0.03768 0.238633,-0.02511 0.624195,-0.278802 0.79375,-0.79375 0.175835,-0.207232 0.163275,-1.027764 0,-1.322917 0,0 -0.221453,-0.573955 -0.529166,-0.793751 z" /></clipPath></defs><g
     id="layer1"
     style="display:inline"><g
       id="g15"
       transform="matrix(2.5363124,0,0,2.5363124,-105.31623,-102.58143)"
       style="fill:#111118;fill-opacity:1"><path
         style="display:inline;fill:#111118;fill-opacity:1;stroke:none;stroke-width:0.264583;stroke-opacity:1"
         d="m 68.262499,61.118751 c -0.37679,-0.138156 -2.054699,-0.113037 -2.38125,0 -0.514946,0.138156 -1.60089,0.971247 -1.852083,1.322917 -0.138156,0.339111 -0.40274,2.546187 -0.264584,2.910417 0.106494,0.430909 0.706667,1.361757 1.058337,1.575271 0.35167,0.276312 0.951451,0.552143 1.215203,0.564703 0.627983,0.08792 2.026011,-0.02331 2.026011,-0.02331 0.514946,-0.02512 1.358007,-0.365886 1.521283,-0.529162 0.428689,-0.491488 0.643034,-0.997196 0.79375,-1.5875 0,0 0.170444,-1.327301 0,-1.852084 -0.125597,-0.552625 -0.705832,-1.1722 -0.79375,-1.322916 0,0 -1.034045,-0.957857 -1.322917,-1.058334 z"
         id="path3"
         clip-path="url(#clipPath14)"
         sodipodi:nodetypes="ccccccccccccc"
         inkscape:path-effect="#path-effect14"
         inkscape:original-d="m 68.262499,61.118751 c -0.37679,-0.138156 -2.054699,-0.113037 -2.38125,0 -0.514946,0.138156 -1.60089,0.971247 -1.852083,1.322917 -0.138156,0.339111 -0.40274,2.546187 -0.264584,2.910417 0.106494,0.430909 0.706667,1.361757 1.058337,1.575271 0.35167,0.276312 0.951451,0.552143 1.215203,0.564703 0.627983,0.08792 2.026011,-0.02331 2.026011,-0.02331 0.514946,-0.02512 1.358007,-0.365886 1.521283,-0.529162 0.428689,-0.491488 0.643034,-0.997196 0.79375,-1.5875 0,0 0.170444,-1.327301 0,-1.852084 -0.125597,-0.552625 -0.705832,-1.1722 -0.79375,-1.322916 0,0 -1.034045,-0.957857 -1.322917,-1.058334 z" /><path
         style="fill:#111118;fill-opacity:1;stroke:none;stroke-width:0.264583;stroke-opacity:1"
         d="m 55.827083,59.002085 c 0.230907,-0.515099 1.706293,-2.270983 2.38125,-2.910416 0,0 2.01613,-1.644363 2.910416,-2.116668 0.888948,-0.440309 2.642139,-0.829273 3.175,-0.793749 l 0.529167,1.5875 0.529167,0.264583 0.529166,0.79375 0.264583,-1.368409 -0.529166,-0.219091 v -1.058333 c 1.5875,-0.264584 3.704166,-0.264584 5.027083,0 l 3.439583,1.587499 2.910417,2.645834 -2.645833,1.5875 -0.79375,1.058333 h 1.322916 l 1.058334,-1.058333 1.5875,-0.529167 1.552691,2.645834 0.828559,2.910417 -0.301054,3.439578 -0.492696,1.322921 -1.5875,-0.529166 -1.852084,-0.264584 -0.264583,-0.264583 h -0.79375 l 0.264583,0.529167 1.5875,0.529166 0.264584,0.529167 1.852083,0.79375 -1.852083,2.910417 -2.910417,2.38125 -2.910417,1.322916 -3.782602,0.688563 v -0.477266 l 0.607602,-0.740463 v -2.645834 l -0.607602,-0.607676 -0.715314,0.607676 v 1.852084 l -1.852083,1.5875 -3.96875,-1.322917 -3.175,-2.645833 -2.116667,-2.910417 1.322917,-1.058333 h 2.38125 l 0.264583,-1.322917 -0.264583,-0.529167 -0.529167,0.79375 h -2.645833 l -0.264584,0.529167 h -1.058333 l -0.529167,-2.910417 0.264584,-2.645833 1.058333,-2.38125 h 2.116667 1.322916 l 0.529167,0.529167 -0.264584,-1.058334 -1.322916,-0.793749 z"
         id="path7"
         sodipodi:nodetypes="ccccccccccccccccccccccccccccccccccccccccccccccccccccccccccccc"
         clip-path="url(#clipPath13)"
         inkscape:path-effect="#path-effect13"
         inkscape:original-d="m 55.827083,59.002085 c 0.230907,-0.515099 1.706293,-2.270983 2.38125,-2.910416 0,0 2.01613,-1.644363 2.910416,-2.116668 0.888948,-0.440309 2.642139,-0.829273 3.175,-0.793749 l 0.529167,1.5875 0.529167,0.264583 0.529166,0.79375 0.264583,-1.368409 -0.529166,-0.219091 v -1.058333 c 1.5875,-0.264584 3.704166,-0.264584 5.027083,0 l 3.439583,1.587499 2.910417,2.645834 -2.645833,1.5875 -0.79375,1.058333 h 1.322916 l 1.058334,-1.058333 1.5875,-0.529167 1.552691,2.645834 0.828559,2.910417 -0.301054,3.439578 -0.492696,1.322921 -1.5875,-0.529166 -1.852084,-0.264584 -0.264583,-0.264583 h -0.79375 l 0.264583,0.529167 1.5875,0.529166 0.264584,0.529167 1.852083,0.79375 -1.852083,2.910417 -2.910417,2.38125 -2.910417,1.322916 -3.782602,0.688563 v -0.477266 l 0.607602,-0.740463 v -2.645834 l -0.607602,-0.607676 -0.715314,0.607676 v 1.852084 l -1.852083,1.5875 -3.96875,-1.322917 -3.175,-2.645833 -2.116667,-2.910417 1.322917,-1.058333 h 2.38125 l 0.264583,-1.322917 -0.264583,-0.529167 -0.529167,0.79375 h -2.645833 l -0.264584,0.529167 h -1.058333 l -0.529167,-2.910417 0.264584,-2.645833 1.058333,-2.38125 h 2.116667 1.322916 l 0.529167,0.529167 -0.264584,-1.058334 -1.322916,-0.793749 z" /><path
         style="fill:#111118;fill-opacity:1;stroke:none;stroke-width:0.264583;stroke-opacity:1"
         d="m 81.243563,70.114585 0.777269,-1.76626 1.322917,-0.213146 2.645833,1.979406 -1.975141,1.322917 h -1.24334 z"
         id="path10" /><path
         style="fill:#111118;fill-opacity:1;stroke:none;stroke-width:0.264583;stroke-opacity:1"
         d="m 88.635416,71.437502 -0.264584,-1.058334 -3.175,-3.439583 -3.704166,-6.614583 -6.35,-6.879167 c 0,0 -3.21834,-1.312189 -7.14375,-1.587501 -2.255779,-0.02664 -6.596111,0.681637 -9.260417,1.587501 -2.539972,1.616346 -5.474118,4.536425 -7.14375,6.614584 -1.343883,1.632756 -3.22773,4.617597 -3.96875,6.614583 l -1.003548,0.793745 -2.436035,0.529171 -0.264583,-0.79375 1.322916,-0.529166 1.058334,-0.79375 c 0,0 0.618745,-1.981833 1.058333,-3.175 0.213514,-0.602864 1.852083,-3.175 1.852083,-3.175 l 2.38125,-2.38125 v -1.058333 l -2.910416,-3.704167 h -1.058334 l -0.264583,0.529167 h -1.322917 l -3.96875,-3.96875 v -1.322917 l 0.529167,-0.264583 3.704167,3.96875 h 1.058333 l 1.322917,-1.058334 h 1.322916 l 3.439584,4.7625 1.5875,-1.5875 2.38125,-1.322916 1.058333,-0.529167 -2.116667,-3.704167 -1.058333,-0.264583 -2.910417,-5.820833 0.264584,-1.322917 3.175,5.291667 1.5875,0.264583 2.645833,4.7625 c 0,0 1.645617,-0.632044 3.439583,-1.058333 2.397875,-0.230907 8.995833,0 8.995833,0 l 2.116667,-2.910417 1.852083,-0.264583 3.96875,-4.7625 0.264584,0.529166 -3.175,5.55625 -1.5875,0.264584 -1.322917,2.38125 2.910417,1.5875 3.96875,4.233333 3.704166,-2.910417 1.058334,0.79375 7.143749,-5.291666 v 1.058333 l -6.614583,5.820833 -1.322916,-0.79375 -3.175,2.38125 1.852083,2.116667 2.57438,4.762497 2.210498,3.84143 3.417205,3.566906 -0.529166,1.322917 -3.439584,1.322916 h -2.645833 l -2.38125,1.852084 2.38125,2.910416 h 2.38125 l 3.439583,4.497917 -0.264583,1.058333 -3.439583,-3.96875 h -2.38125 l -3.018822,-3.280187 -1.198031,-0.351671 -3.456064,2.044358 -3.96875,1.058334 0.79375,3.704166 1.852083,0.264584 0.79375,0.79375 1.322917,5.291666 -0.264583,1.322917 -2.645834,-5.820833 -1.852083,-0.264584 -1.5875,-4.497916 -3.96875,0.529166 -3.96875,-0.264583 -0.79375,3.704167 -1.5875,1.058333 h -1.058333 l -1.5875,5.291666 -1.322917,1.322917 1.058334,-6.35 2.645833,-1.852083 0.529167,-3.704167 -3.439584,-0.79375 -4.497916,-1.852083 -3.439584,4.7625 -2.116666,-0.79375 h -0.79375 l -5.291667,5.291667 h -0.79375 l 6.614583,-7.408334 h 0.529167 l 0.79375,0.529167 2.38125,-2.910417 -0.264583,-1.322916 -2.910417,-2.645834 -2.38125,-3.175 h -1.5875 l 0.529167,-1.5875 h 1.852083 l 4.233333,4.233334 6.614584,4.233333 6.614583,1.322917 7.672916,-0.264584 6.879167,-2.910416 6.35,-3.704167 z"
         id="path11"
         sodipodi:nodetypes="cccccccccccccccccccccccccccccccccccccccccccccccccccccccccccccccccccccccccccccccccccccccccccccccccccccccccccccccccccccc" /></g></g></svg>
