<?xml version="1.0" encoding="UTF-8" standalone="no"?>
<!-- Created with Inkscape (http://www.inkscape.org/) -->

<svg
   width="500"
   height="500"
   viewBox="0 0 132.29166 132.29167"
   version="1.1"
   id="svg1"
   xml:space="preserve"
   sodipodi:docname="logout.svg"
   inkscape:version="1.4.2 (ebf0e940d0, 2025-05-08)"
   xmlns:inkscape="http://www.inkscape.org/namespaces/inkscape"
   xmlns:sodipodi="http://sodipodi.sourceforge.net/DTD/sodipodi-0.dtd"
   xmlns="http://www.w3.org/2000/svg"
   xmlns:svg="http://www.w3.org/2000/svg"><sodipodi:namedview
     id="namedview1"
     pagecolor="#ffffff"
     bordercolor="#000000"
     borderopacity="0.25"
     inkscape:showpageshadow="2"
     inkscape:pageopacity="0.0"
     inkscape:pagecheckerboard="0"
     inkscape:deskcolor="#d1d1d1"
     showgrid="true"
     inkscape:zoom="2"
     inkscape:cx="-55.75"
     inkscape:cy="139.75"
     inkscape:window-width="3816"
     inkscape:window-height="2078"
     inkscape:window-x="0"
     inkscape:window-y="0"
     inkscape:window-maximized="1"
     inkscape:current-layer="layer1"><inkscape:grid
       id="grid1"
       units="px"
       originx="0"
       originy="0"
       spacingx="0.26458332"
       spacingy="0.26458334"
       empcolor="#0099e5"
       empopacity="0.30196078"
       color="#0099e5"
       opacity="0.14901961"
       empspacing="5"
       enabled="true"
       visible="true" /></sodipodi:namedview><defs
     id="defs1"><inkscape:path-effect
       effect="powerclip"
       message=""
       id="path-effect14"
       is_visible="true"
       lpeversion="1"
       inverse="true"
       flatten="false"
       hide_clip="false" /><inkscape:path-effect
       effect="powerclip"
       message=""
       id="path-effect13"
       is_visible="true"
       lpeversion="1"
       inverse="true"
       flatten="false"
       hide_clip="false" /><inkscape:path-effect
       effect="powerclip"
       message=""
       id="path-effect9"
       is_visible="true"
       lpeversion="1"
       inverse="true"
       flatten="false"
       hide_clip="false" /><inkscape:path-effect
       effect="powerclip"
       message=""
       id="path-effect6"
       is_visible="true"
       lpeversion="1"
       inverse="true"
       flatten="false"
       hide_clip="false" /><inkscape:path-effect
       effect="powerclip"
       message=""
       id="path-effect5"
       is_visible="true"
       lpeversion="1"
       inverse="true"
       flatten="false"
       hide_clip="false" /><clipPath
       clipPathUnits="userSpaceOnUse"
       id="clipPath13"><path
         style="display:block;fill:#000000;stroke-width:0.264583"
         d="m 66.939582,71.048154 c -1.322916,-0.139819 -3.2982,-0.674957 -4.292872,-1.243343 -0.734211,-0.483976 -2.215139,-2.477445 -2.321711,-4.981893 0.08881,-2.309066 1.322917,-4.233333 1.852084,-4.822753 1.058333,-0.99808 1.852083,-1.262663 3.439583,-1.79183 1.322916,-0.264583 2.910416,-0.264583 3.584236,0 0.649097,0.264584 1.705155,1.322917 1.705155,1.322917 l -1.172295,1.322917 -0.17762,0.886676 2.273541,0.43624 1.195316,-0.529166 0.509842,1.123124 c 0.283908,0.464376 0.157178,2.581042 -0.106575,3.374792 -0.403267,0.79375 -1.726184,2.645833 -2.415635,3.339259 -0.898049,0.629491 -2.485549,1.423241 -4.073049,1.56306 z"
         id="path13"
         clip-path="none"
         sodipodi:nodetypes="ccccccccccccccc" /></clipPath><clipPath
       clipPathUnits="userSpaceOnUse"
       id="clipPath14"><path
         style="display:block;fill:#111118;stroke-width:0.264583"
         d="m 67.997916,62.970835 c -0.452149,-0.219794 -1.68964,-0.144436 -2.116667,0 -0.370509,0.194675 -0.76863,0.921007 -0.79375,1.322917 0,0 0.01339,0.782021 0.264584,1.058333 0.08792,0.119317 0.429519,0.416129 0.793749,0.491488 0.251193,0.113037 1.047436,0.08164 1.5875,0.03768 0.238633,-0.02511 0.624195,-0.278802 0.79375,-0.79375 0.175835,-0.207232 0.163275,-1.027764 0,-1.322917 0,0 -0.221453,-0.573955 -0.529166,-0.793751 z"
         id="path14"
         sodipodi:nodetypes="ccccccccc" /></clipPath></defs><g
     id="layer1"
     style="display:inline"><g
       id="g6"
       transform="matrix(2.6493146,0,0,2.6493146,-108.44504,-109.47962)"><path
         style="fill:#ff6058;stroke-width:0.264583"
         d="m 43.292447,69.850002 -2.282031,2.645833 v 5.291667 l 4.53099,-3.96875 c 0,0 -1.548695,-1.680178 -1.885157,-2.38125 -0.336461,-0.701073 -0.363802,-1.5875 -0.363802,-1.5875 z"
         id="path1"
         sodipodi:nodetypes="cccczc" /><path
         style="fill:#ff6058;stroke-width:0.264583"
         d="m 44.549218,68.791668 3.075781,-3.704166 2.645834,-1.5875 3.96875,-3.96875 v -3.439583 h 0.694531 l 1.322917,1.5875 0.06614,1.852083 2.71198,-0.79375 7.772135,-1.058333 0.661458,0.79375 1.322917,0.529166 v 1.5875 l -7.9375,2.116667 -0.396875,1.322917 0.727604,0.264583 0.03307,3.175 -1.223698,0.264583 -0.132292,1.058333 -1.322916,0.264584 -2.083594,-0.529167 -1.256771,1.322917 -2.976562,0.264583 -2.678906,2.910417 z"
         id="path2" /><path
         style="fill:#ff6058;stroke-width:0.264583"
         d="m 50.634635,73.554168 c 0,0 1.233701,0.704799 1.488281,1.322917 0.25458,0.618118 0.481728,1.335138 0.198438,2.116667 -0.28329,0.781529 -6.019271,7.408333 -6.019271,7.408333 v -1.058333 c 0,0 3.359851,-4.954941 3.96875,-6.35 0.608899,-1.395059 0.523118,-1.101753 0.429948,-1.5875 -0.09317,-0.485747 -0.79375,-1.058334 -0.79375,-1.058334 z"
         id="path3"
         sodipodi:nodetypes="czzcczzcc" /><path
         style="fill:#ff6058;stroke-width:0.264583"
         d="m 56.885416,81.491668 c 0,0 6.829626,-2.614214 8.73125,-3.96875 1.901623,-1.354535 2.412222,-1.923808 2.910416,-2.910416 0.498195,-0.986609 0.538275,-1.789621 0.529167,-2.645834 -0.0091,-0.856213 -0.315404,-2.151455 -0.79375,-3.175 -0.478346,-1.023545 -2.116667,-2.645836 -2.116667,-2.645836 v -2.315104 l -0.562239,-0.330726 -0.760677,0.529167 -0.06615,2.116666 1.389062,2.38125 c 0,0 0.833205,2.322787 0.959115,3.175 0.12591,0.852213 0.232452,1.142836 0,1.852083 -0.232452,0.709247 -0.475086,1.13754 -1.488284,1.91823 -1.013198,0.78069 -3.046541,1.594471 -4.431768,2.315104 -1.385227,0.720633 -3.935677,2.116666 -3.935677,2.116666 z"
         id="path4"
         sodipodi:nodetypes="czzzzcccccczzzzcc" /><path
         style="fill:#ff6058;stroke-width:0.264583"
         d="m 78.052082,79.639585 v 0.79375 l 2.083594,1.5875 -0.06615,5.55625 1.35599,1.058333 4.564062,-1.852083 4.7625,-2.910417 0.132292,-3.704166 -3.175,-1.322917 -1.719792,-1.322917 v -2.645833 l -1.322916,-1.322917 v -3.175 l 2.215885,-5.027083 0.429948,-2.645833 0.760677,-0.529167 0.03307,-1.5875 0.529167,-1.058333 -0.826823,-0.79375 h -1.289844 l -0.198438,-7.672917 c 0,0 -0.458546,-1.595961 -1.157544,-2.381251 -0.698999,-0.785289 -1.871751,-1.711797 -2.976563,-2.38125 -1.104813,-0.669453 -2.12105,-1.275238 -3.604948,-1.5875 -1.483899,-0.312261 -3.522731,-0.342018 -5.159375,0 -1.636645,0.342018 -3.36865,1.13366 -4.464848,1.951299 -1.096198,0.81764 -1.69776,1.656871 -2.149735,2.546617 -0.451975,0.889746 -0.448114,1.565035 -0.628383,2.579685 -0.18027,1.014651 -0.562249,3.770317 -0.562249,3.770317 l 0.859896,0.264583 c 0,0 0.312477,-1.802786 0.628385,-2.910416 0.315908,-1.10763 0.463818,-2.618005 1.322917,-3.704167 0.859099,-1.086162 2.24334,-1.914038 3.671093,-2.38125 1.427753,-0.467212 4.630209,-0.264583 4.630209,-0.264583 l -3.571875,3.704166 0.09922,0.79375 1.223698,0.79375 0.09922,1.5875 -1.81901,2.116667 h -1.322917 l -0.727604,0.79375 -0.06615,0.79375 0.79375,0.529167 1.322917,-0.529167 h 1.984375 l 1.984375,0.529167 2.645833,-0.79375 h 2.976562 l 1.422136,0.79375 0.03307,2.38125 -1.785938,2.38125 h -1.984375 l -1.389062,-0.79375 -0.595313,-2.116667 h -1.322916 l -0.992188,2.116667 0.198438,2.910416 2.116666,0.264583 0.363802,0.529167 1.389063,0.264583 -1.455208,0.529164 -0.297657,0.52917 v 1.058333 l 0.859896,0.264583 0.09922,0.79375 0.79375,0.264584 0.09922,1.058333 0.79375,0.529167 0.628385,-1.5875 2.017448,-2.645834 2.248958,-4.497916 -0.03307,2.38125 -0.562239,2.645833 -1.488281,2.910417 0.165364,5.027083 -0.826823,1.322917 -1.455208,1.5875 -2.017448,1.058333 z"
         id="path5"
         sodipodi:nodetypes="ccccccccccccccccccccczzzzzzzcczzzcccccccccccccccccccccccccccccccccccccccccccccc" /><path
         style="fill:#ff6058;stroke-width:0.264583"
         d="m 80.697916,72.231252 -1.322917,-0.264584 -0.396875,-0.529166 h -0.926042 l -0.396875,0.529166 -0.926041,0.264584 1.322916,0.79375 0.595313,0.529166 h 1.058333 z"
         id="path6" /></g></g></svg>
