<?xml version="1.0" encoding="UTF-8" standalone="no"?>
<!-- Created with Inkscape (http://www.inkscape.org/) -->

<svg
   width="500"
   height="500"
   viewBox="0 0 132.29166 132.29167"
   version="1.1"
   id="svg1"
   xml:space="preserve"
   sodipodi:docname="shutdown-hover.svg"
   inkscape:version="1.4.2 (ebf0e940d0, 2025-05-08)"
   xmlns:inkscape="http://www.inkscape.org/namespaces/inkscape"
   xmlns:sodipodi="http://sodipodi.sourceforge.net/DTD/sodipodi-0.dtd"
   xmlns="http://www.w3.org/2000/svg"
   xmlns:svg="http://www.w3.org/2000/svg"><sodipodi:namedview
     id="namedview1"
     pagecolor="#ffffff"
     bordercolor="#000000"
     borderopacity="0.25"
     inkscape:showpageshadow="2"
     inkscape:pageopacity="0.0"
     inkscape:pagecheckerboard="0"
     inkscape:deskcolor="#d1d1d1"
     showgrid="true"
     inkscape:zoom="2.6332657"
     inkscape:cx="100.82537"
     inkscape:cy="188.54915"
     inkscape:window-width="3816"
     inkscape:window-height="2078"
     inkscape:window-x="0"
     inkscape:window-y="0"
     inkscape:window-maximized="1"
     inkscape:current-layer="layer1"><inkscape:grid
       id="grid1"
       units="px"
       originx="0"
       originy="0"
       spacingx="0.26458332"
       spacingy="0.26458334"
       empcolor="#0099e5"
       empopacity="0.30196078"
       color="#0099e5"
       opacity="0.14901961"
       empspacing="5"
       enabled="true"
       visible="true" /></sodipodi:namedview><defs
     id="defs1" /><g
     id="layer1"
     style="display:inline"><g
       id="g5"
       transform="matrix(2.6727071,0,0,2.6727071,-100.07424,-101.08854)"
       style="display:inline;stroke:none;fill:#111118;fill-opacity:1"><path
         style="fill:#111118;stroke-width:0.264583;stroke:none;fill-opacity:1"
         d="m 43.127083,83.079168 v -1.852083 l 11.90625,-5.820833 0.529166,0.264583 z"
         id="path1" /><path
         style="fill:#111118;stroke-width:0.264583;stroke:none;fill-opacity:1"
         d="m 43.127083,85.725002 8.202083,-4.7625 v 0.79375 l -3.175,3.439583 -4.7625,1.322917 z"
         id="path2" /><path
         style="fill:#111118;stroke-width:0.264583;stroke:none;fill-opacity:1"
         d="m 51.936202,86.518752 h -0.959151 l 7.495865,-9.260417 7.9375,6.35 h 0.79375 l -1.058334,-4.5495 1.852084,-2.329667 3.175,-2.116666 0.264583,-1.852084 -1.322917,-3.96875 v -1.935355 l 5.291667,-0.142095 0.72185,3.400367 1.492011,1.821672 1.754889,-1.101246 -0.866788,1.925407 -1.514462,0.264584 -5.820833,5.291666 -0.264584,3.044796 1.058334,-0.663546 0.264583,-1.852083 3.96875,-3.175 5.027083,-0.529167 0.264584,0.79375 0.397306,-1.058333 -1.45564,-0.79375 -0.79375,0.529167 -0.79375,-0.264584 v -0.79375 l 0.79375,-0.264583 h 2.116667 l 0.79375,0.79375 v -1.5875 l -1.322917,-1.852083 v -1.058334 l 1.058334,-1.322916 -0.529167,-1.058334 v -1.5875 h -3.83613 l -0.13262,-4.762499 -4.233333,-3.96875 -0.264584,-1.058334 0.264584,-0.529166 5.027083,4.233333 0.79375,1.322917 0.264583,1.852083 0.264584,-0.264583 v -2.38125 l -0.529167,-0.79375 -10.31875,-9.260417 h -0.79375 l 1.058333,1.322917 -0.529166,0.264583 -0.79375,-0.529167 h -2.38125 l -1.852083,0.79375 8.731249,7.9375 0.264584,0.79375 -0.529167,0.264584 -0.529167,-0.264584 -8.731249,-7.672916 h -0.79375 l -2.910417,1.5875 -0.79375,-1.058334 2.38125,-2.116666 -0.264583,-0.264584 -1.322917,-0.264583 -4.497917,-4.497917 -1.5875,0.79375 -8.202083,-7.9375 0.264583,-1.058333 8.202084,7.408333 1.058333,-0.529166 h 0.79375 l 4.497917,4.497916 h 1.852083 l 0.529167,0.79375 2.116666,-0.79375 h 2.38125 l -3.96875,-3.704166 -2.38125,0.264583 -7.408333,-7.14375 v -0.529167 h 1.058333 l 6.35,5.820834 1.5875,-0.264584 v -0.79375 l -4.233333,-4.497916 0.529167,-0.529167 5.291666,4.7625 v 1.322917 l 6.614583,5.291666 h 2.116667 l 3.175,1.852084 0.529167,-2.116667 -3.96875,-3.96875 -0.264584,-1.322917 -2.116666,-0.264583 -5.291667,-5.291667 v -0.529169 l 1.058334,0.264586 3.968749,3.96875 h 2.116667 l -3.96875,-3.96875 1.322917,-0.264586 4.233333,3.968753 0.264583,2.116666 4.233334,4.7625 v 3.96875 l 4.497916,3.704167 1.5875,2.645833 0.529167,2.116667 v 6.879166 l -1.058333,1.5875 v 1.322917 l 1.058333,2.38125 v 2.645833 l -1.852083,0.264584 v 0.79375 h -2.116667 v 1.322916 h -1.322917 v 0.529167 h -1.322916 l -0.529167,-0.79375 -2.645833,0.529167 v 3.704166 l -0.264584,0.529167 h -0.529166 l -1.322917,1.5875 v 1.5875 l -1.5875,1.322917 h -1.852083 l -6.35,-5.027084 h -2.116667 l -4.283805,1.455209 z"
         id="path3" /><path
         style="fill:#111118;stroke-width:0.264583;stroke:none;fill-opacity:1"
         d="m 78.316666,70.114585 -0.529167,-1.058333 1.322917,-1.5875 1.058333,1.058333 -0.79375,1.322917 z"
         id="path4" /><path
         style="fill:#111118;stroke-width:0.264583;stroke:none;fill-opacity:1"
         d="m 64.293749,60.325002 c -0.264583,0 -1.322916,0 -1.322916,0 l -8.995834,-7.9375 -1.058333,2.38125 h -1.322917 l -8.466666,-7.14375 v -1.322917 l 1.5875,1.322917 0.529166,-0.264583 -0.529166,-2.116667 -5.027083,-4.497917 -0.264584,-1.322916 6.879167,5.820833 0.264583,3.439583 5.027083,4.7625 0.529167,-0.264583 v -1.322917 l 1.058333,-1.5875 10.847917,9.260417 z"
         id="path5" /></g></g></svg>
