<?xml version="1.0" encoding="UTF-8" standalone="no"?>
<!-- Created with Inkscape (http://www.inkscape.org/) -->

<svg
   width="500"
   height="500"
   viewBox="0 0 132.29166 132.29167"
   version="1.1"
   id="svg1"
   xml:space="preserve"
   sodipodi:docname="suspend-hover.svg"
   inkscape:version="1.4.2 (ebf0e940d0, 2025-05-08)"
   xmlns:inkscape="http://www.inkscape.org/namespaces/inkscape"
   xmlns:sodipodi="http://sodipodi.sourceforge.net/DTD/sodipodi-0.dtd"
   xmlns="http://www.w3.org/2000/svg"
   xmlns:svg="http://www.w3.org/2000/svg"><sodipodi:namedview
     id="namedview1"
     pagecolor="#ffffff"
     bordercolor="#000000"
     borderopacity="0.25"
     inkscape:showpageshadow="2"
     inkscape:pageopacity="0.0"
     inkscape:pagecheckerboard="0"
     inkscape:deskcolor="#d1d1d1"
     showgrid="true"
     inkscape:zoom="3.734"
     inkscape:cx="250"
     inkscape:cy="250"
     inkscape:window-width="3816"
     inkscape:window-height="2078"
     inkscape:window-x="0"
     inkscape:window-y="0"
     inkscape:window-maximized="1"
     inkscape:current-layer="g19"><inkscape:grid
       id="grid1"
       units="px"
       originx="0"
       originy="0"
       spacingx="0.26458332"
       spacingy="0.26458334"
       empcolor="#0099e5"
       empopacity="0.30196078"
       color="#0099e5"
       opacity="0.14901961"
       empspacing="5"
       enabled="true"
       visible="true" /></sodipodi:namedview><defs
     id="defs1"><inkscape:path-effect
       effect="powerclip"
       message=""
       id="path-effect14"
       is_visible="true"
       lpeversion="1"
       inverse="true"
       flatten="false"
       hide_clip="false" /><inkscape:path-effect
       effect="powerclip"
       message=""
       id="path-effect13"
       is_visible="true"
       lpeversion="1"
       inverse="true"
       flatten="false"
       hide_clip="false" /><inkscape:path-effect
       effect="powerclip"
       message=""
       id="path-effect9"
       is_visible="true"
       lpeversion="1"
       inverse="true"
       flatten="false"
       hide_clip="false" /><inkscape:path-effect
       effect="powerclip"
       message=""
       id="path-effect6"
       is_visible="true"
       lpeversion="1"
       inverse="true"
       flatten="false"
       hide_clip="false" /><inkscape:path-effect
       effect="powerclip"
       message=""
       id="path-effect5"
       is_visible="true"
       lpeversion="1"
       inverse="true"
       flatten="false"
       hide_clip="false" /><clipPath
       clipPathUnits="userSpaceOnUse"
       id="clipPath13"><path
         style="display:block;fill:#000000;stroke-width:0.264583"
         d="m 66.939582,71.048154 c -1.322916,-0.139819 -3.2982,-0.674957 -4.292872,-1.243343 -0.734211,-0.483976 -2.215139,-2.477445 -2.321711,-4.981893 0.08881,-2.309066 1.322917,-4.233333 1.852084,-4.822753 1.058333,-0.99808 1.852083,-1.262663 3.439583,-1.79183 1.322916,-0.264583 2.910416,-0.264583 3.584236,0 0.649097,0.264584 1.705155,1.322917 1.705155,1.322917 l -1.172295,1.322917 -0.17762,0.886676 2.273541,0.43624 1.195316,-0.529166 0.509842,1.123124 c 0.283908,0.464376 0.157178,2.581042 -0.106575,3.374792 -0.403267,0.79375 -1.726184,2.645833 -2.415635,3.339259 -0.898049,0.629491 -2.485549,1.423241 -4.073049,1.56306 z"
         id="path13"
         clip-path="none"
         sodipodi:nodetypes="ccccccccccccccc" /></clipPath><clipPath
       clipPathUnits="userSpaceOnUse"
       id="clipPath14"><path
         style="display:block;fill:#111118;stroke-width:0.264583"
         d="m 67.997916,62.970835 c -0.452149,-0.219794 -1.68964,-0.144436 -2.116667,0 -0.370509,0.194675 -0.76863,0.921007 -0.79375,1.322917 0,0 0.01339,0.782021 0.264584,1.058333 0.08792,0.119317 0.429519,0.416129 0.793749,0.491488 0.251193,0.113037 1.047436,0.08164 1.5875,0.03768 0.238633,-0.02511 0.624195,-0.278802 0.79375,-0.79375 0.175835,-0.207232 0.163275,-1.027764 0,-1.322917 0,0 -0.221453,-0.573955 -0.529166,-0.793751 z"
         id="path14"
         sodipodi:nodetypes="ccccccccc" /></clipPath></defs><g
     id="layer1"
     style="display:inline"><g
       id="g19"
       transform="matrix(2.9926667,0,0,2.9926667,-135.93785,-135.27444)"><g
         id="g10"
         transform="matrix(0.9956504,0,0,0.9956504,0.21928745,0.30893235)"
         style="display:inline;fill:#111118;fill-opacity:1"><path
           style="fill:#111118;fill-opacity:1;stroke-width:0.264583"
           d="m 64.405152,45.612915 -0.905153,0.68917 -0.409236,0.625221 -0.319717,-0.625221 h -1.652297 l -5.55625,2.38125 -6.085416,5.027084 -3.704167,5.291666 v 8.73125 l 0.529167,1.5875 2.645833,2.38125 0.264583,6.614583 -0.264583,1.322917 v 3.175 l 0.79375,1.058333 h 1.058333 l 0.529167,-1.322916 v -2.910417 l -0.264583,-0.529167 v -4.233333 l 0.79375,-1.322917 h 1.5875 l 0.529166,-0.79375 h 1.5875 l 0.529167,-0.264583 h 0.529167 c 0,0 0,8.466667 0,8.73125 0,0.264583 -0.264584,1.322917 -0.264584,1.322917 l 1.058334,1.322916 h 0.79375 l 0.79375,-2.116666 -0.529167,-0.79375 v -4.7625 l 0.264583,0.529166 h 1.322917 l 1.322917,0.79375 1.5875,0.264584 1.058333,0.529166 v 6.35 2.910417 l 0.264583,0.529167 h 1.058334 l 0.793749,-1.017583 v -1.004773 l -0.529166,-0.623478 v -4.7625 l 0.79375,-0.529166 v -1.058334 l 1.322916,-1.5875 h 1.322917 l 0.264583,1.5875 -0.529166,1.322917 0.529166,1.852083 h 0.79375 l 0.79375,-1.058333 v -6.614583 l 0.264584,-0.79375 1.058333,1.5875 0.79375,-0.79375 1.5875,0.264583 1.322917,1.058333 v 3.96875 l 0.264583,0.264584 h 1.058333 l 0.264584,-0.264584 v -3.704166 h 2.38125 v 9.789583 h 1.322916 l 0.264584,-1.058333 0.529166,-0.529167 v -4.233333 l -0.529166,-0.79375 v -4.7625 l 1.5875,-0.264584 2.116666,-1.5875 0.79375,-1.5875 0.264584,-2.116666 1.852083,-0.79375 1.322917,-1.322917 v -6.879166 l -1.058334,-2.38125 -2.116666,-2.38125 -0.264584,-1.5875 -2.910416,-1.852084 -0.264584,-1.058333 -3.96875,-2.645833 -3.175,-1.058334 -0.529166,-0.79375 c 0,0 -1.5875,-0.79375 -1.852084,-0.79375 -0.264583,0 -2.645833,0 -2.645833,0 l -1.852083,2.116667 v 1.682417 l -3.96875,3.60925 v 1.322916 l 1.322916,0.787212 -2e-6,0.390764 -2.095918,0.603908 -0.814496,1.393116 -0.462246,1.314376 -0.728458,0.301432 v 1.657874 c 0,0 0.904295,1.029893 1.105249,1.029893 0.200953,0 0.552624,-0.100478 0.552624,-0.100478 l -0.02511,-1.883947 0.226076,-0.376791 c 0,0 0.401908,1.004774 0.527505,1.004774 0.125595,0 2.16026,-1.682996 2.16026,-1.682996 l 0.05024,-1.230847 -1.08013,0.150717 -1.130369,0.577745 -0.200956,-0.502386 0.552627,-0.728461 1.363112,-0.125595 2.078234,-1.833711 -0.02511,-1.88395 -0.753579,-0.678222 3.793017,-1.08013 1.406681,-0.728459 -0.02511,-1.205727 0.577744,-0.40191 0.728461,0.05024 0.05024,1.783472 -1.155488,0.226073 -3.742778,2.687767 c 0,0 -1.004773,1.833711 -1.004773,1.984425 0,0.150717 -0.07536,1.180608 -0.07536,1.180608 l 0.226073,2.135143 c 0,0 0.979654,0.602863 1.105249,0.552624 0.125598,-0.05024 0.577744,-0.452146 0.577744,-0.452146 v -0.904296 l -0.904295,-0.40191 0.577744,-0.828937 1.004774,0.05024 0.37679,-1.255966 0.904296,-0.678223 0.778697,0.728462 -0.552624,0.627983 0.150714,2.361216 1.130369,-0.477269 0.150717,-1.356442 1.909067,-1.783471 -0.125595,-0.979655 -0.552625,-0.427026 0.100476,-0.678223 0.904295,-0.753581 0.502389,0.653103 -0.100479,4.998744 1.230847,0.05024 0.175835,-2.310977 1.281086,-0.251192 -0.02511,-0.477269 -0.728462,-0.502386 1.180608,-0.251192 0.100478,1.733232 -0.778698,0.301432 0.100476,1.08013 1.331325,-0.05024 0.803817,-0.477268 v -1.909067 l 0.929416,-0.80382 1.080129,0.276315 1.105252,1.507156 0.05024,1.130372 1.883949,1.306203 v 1.507159 l 0.40191,0.552625 0.778698,-0.376791 0.150717,-0.602864 1.657874,0.351671 -2.210501,0.929415 -1.281083,0.728462 -0.80382,1.130369 0.226076,1.155488 1.230847,-0.125598 0.276312,-1.255964 0.803817,-0.100478 0.150715,1.05501 1.507159,0.477269 -2.788243,0.226073 -0.100478,1.205728 -2.009545,1.733232 1.08013,0.653103 3.039438,-2.009545 -0.125597,0.828937 -3.265512,1.934186 -1.381561,1.959309 -0.251193,1.783471 -1.356442,1.155488 -0.100478,-2.888723 0.703339,-0.6531 -0.200954,-1.155488 -0.778698,0.125595 -0.828936,0.703342 -0.251196,4.119567 0.301432,0.452147 -0.07536,0.653102 -2.788245,-0.200953 -2.285857,-1.080133 -0.376791,-0.678219 2.461694,-0.251193 2.336096,-2.059784 0.954535,-1.758352 0.02511,-1.758355 -1.055013,0.251196 -0.653103,1.45692 -1.255964,1.657874 -2.838484,1.105249 -1.532279,0.577744 c 0,0 -1.180608,1.833711 -1.180608,1.50716 0,-0.326552 0.07536,-7.277928 0.07536,-7.277928 l -1.306203,-0.986327 1.607635,-1.883948 -0.276312,-0.7787 1.657873,-1.557396 1.055013,-0.100478 -0.326551,-1.607637 -1.381562,0.251192 0.150715,0.577747 -1.607635,0.251193 -0.502388,0.803817 -0.276312,1.255967 -1.708113,1.48204 -1.029891,0.02511 0.6531,-0.502389 0.653103,-1.205727 -1.255967,0.125598 -2.228947,1.83371 -1.51383,2.016215 v 0.721789 l -1.105249,0.502388 -0.929415,0.954535 0.150714,1.255964 0.954535,-0.02511 0.40191,0.37679 -0.753581,0.854057 -0.05024,2.486813 0.703339,1.230847 1.507159,0.527505 0.125598,-1.833711 -0.627983,-0.301432 0.728458,-5.400653 -0.401907,-0.351669 0.81049,-0.226075 1.173935,-1.406682 1.50716,-0.125597 1.05501,0.760254 0.07536,6.524349 -1.331322,1.808591 -1.507159,0.100476 -0.07536,1.431803 -2.587289,0.02511 -0.7787,0.502388 -3.089675,-0.80382 -0.477269,-1.708113 -0.627983,-0.401907 -1.205725,-0.07536 0.100476,-3.064557 -0.552625,-0.527505 -1.532278,0.854056 -4.496356,0.552625 -0.351671,1.180608 h -0.653103 l -0.276312,1.230847 -0.100478,-3.717658 -0.954535,-1.306206 -1.45692,-0.251193 -0.854056,-1.105249 -0.05024,-2.662647 -0.326548,-1.356445 0.02511,-2.386335 0.477268,-0.427027 0.02511,-1.431801 0.427027,-0.37679 0.326552,-1.356442 0.427029,1.356442 1.08013,0.125597 0.502385,-0.477268 0.82894,-0.02511 1.05501,0.602864 2.110023,-0.05024 0.552625,0.778701 0.803817,0.276312 -0.02511,0.828937 -1.105249,-0.477266 -1.934186,0.150715 -0.80382,0.678222 -0.200954,1.306203 -1.105249,-1.004771 -1.88395,-0.05024 -0.351671,0.828937 1.632757,0.627983 0.477266,1.155488 -0.828937,0.02511 -1.06757,0.992214 0.175834,0.6531 3.227832,-0.967091 0.251193,-1.017334 0.778701,0.527505 1.243404,-1.180608 1.682996,-0.288872 1.632754,-1.494599 0.213513,-1.419241 0.502389,-0.577744 2.135142,4.169807 1.632754,0.276312 0.728462,-0.527505 -0.100478,-1.507159 -1.50716,-2.160262 0.100479,-0.904296 3.014315,-3.793016 0.125598,-1.230847 -0.728461,-0.401908 0.150717,-0.879176 4.471239,-3.391109 0.37679,-1.230847 -0.828939,-0.577744 1.331325,-0.879176 0.929415,-1.080129 -3.943734,-0.07536 0.150717,1.105252 -0.05024,1.532276 -2.285859,1.180608 c 0,0 -0.452147,0.05024 -0.778698,-0.02511 -0.326552,-0.07536 -1.230847,-1.08013 -1.230847,-1.08013 l 2.28586,-0.100478 1.507156,-0.828937 0.100478,-0.728459 z"
           id="path2" /><path
           style="fill:#111118;fill-opacity:1;stroke-width:0.264583"
           d="m 54.866939,67.051697 c 0,0 1.15453,0.106572 1.24334,0.03552 0.08881,-0.07105 0.479576,-0.489514 0.479576,-0.489514 L 54.70708,64.742631 h -1.065723 l -0.479576,0.373004 0.08881,1.136769 0.976913,0.159859 -0.07105,0.959151 z"
           id="path3" /><path
           style="fill:#111118;fill-opacity:1;stroke-width:0.264583"
           d="m 49.040989,63.286144 c -0.07105,0 -1.634107,0 -1.634107,0 l -0.04441,1.563061 0.497337,0.09769 1.287749,-1.127889 z"
           id="path4" /><path
           style="fill:#111118;fill-opacity:1;stroke-width:0.264583"
           d="m 50.657336,61.030365 0.53286,-0.497337 -0.03552,-0.719363 -0.541743,-0.52398 -2.63766,0.0089 -0.688142,0.548195 0.688142,0.668504 h 1.30551 z"
           id="path5" /><path
           style="fill:#111118;fill-opacity:1;stroke-width:0.264583"
           d="m 75.872895,83.094699 1.796031,0.01257 -0.03768,5.777444 -1.821151,-0.01257 z"
           id="path6" /><path
           style="fill:#111118;fill-opacity:1;stroke-width:0.264583"
           d="m 69.580505,85.217279 c -0.07536,0.113038 -1.04245,1.431801 -1.04245,1.431801 l 0.05024,1.984428 0.904295,0.828937 0.766138,0.02511 0.640543,-1.017334 0.03768,-2.310976 z"
           id="path7" /><path
           style="fill:#111118;fill-opacity:1;stroke-width:0.264583"
           d="m 77.204217,60.537552 0.0628,-1.670433 1.142929,-0.8415 1.092692,0.01257 0.213513,0.891736 0.477266,-0.854057 1.142929,-0.07536 0.339111,0.502386 -0.07536,0.665662 -0.728462,0.602864 -1.921626,-0.0628 -0.891736,1.293643 -0.665662,0.01257 z"
           id="path8" /><path
           style="fill:#111118;fill-opacity:1;stroke-width:0.264583"
           d="m 82.177844,54.722431 -0.590304,0.0628 -0.42703,0.715901 0.07536,1.09269 1.557398,0.602863 0.615421,-0.66566 z"
           id="path9" /><path
           style="fill:#111118;fill-opacity:1;stroke-width:0.264583"
           d="m 84.162269,57.548353 c -0.125597,0 -0.866616,-0.01257 -0.866616,-0.01257 l -0.627983,1.017333 0.540065,0.577744 0.665662,-0.251193 0.251193,1.394122 0.690782,-0.125598 0.690779,-0.753578 z"
           id="path10" /></g><g
         id="g18"
         style="fill:#ff6058;fill-opacity:1"><path
           style="fill:#ff6058;fill-opacity:1;stroke-width:0.264583"
           d="m 50.006249,55.562502 c 0,0 0,0.529167 0.264584,0.529167 0.264583,0 1.322916,0.264583 1.322916,0.264583 l 0.02646,1.238205 H 50.941986 L 50.00625,56.885419 48.907309,57.594457 48.41875,57.414585 v -1.058333 z"
           id="path11" /><path
           style="fill:#ff6058;fill-opacity:1;stroke-width:0.264583"
           d="m 51.329166,53.818977 0.264583,0.559504 0.529167,0.125688 0.159644,0.529166 1.856134,0.529167 0.100889,0.423444 -1.743877,0.195382 -0.108207,-0.488455 -0.611155,-0.130371 -0.156136,-0.74885 -0.687562,-0.0449 z"
           id="path12" /><path
           style="fill:#ff6058;fill-opacity:1;stroke-width:0.264583"
           d="M 57.943749,58.854517 57.566768,58.11739 c 0,0 -0.843909,-0.02664 -0.945935,-0.03552 -0.102026,-0.0089 -1.322917,-0.667282 -1.322917,-0.667282 l -0.264583,-0.966824 0.264583,-0.50622 0.529167,0.679294 1.322916,0.404191 0.683199,0.569431 0.799293,-0.973622 -1.217908,-1.322916 v -2.910417 c 0,0 0.529166,-0.529167 0.529166,-0.529167 l 0.626573,0.61961 -0.361989,2.166969 0.584014,0.355237 0.209736,1.091518 1.424373,-0.529167 0.42771,0.264583 z"
           id="path15" /><path
           style="fill:#ff6058;fill-opacity:1;stroke-width:0.264583"
           d="m 62.441666,51.48327 -0.434388,0.763767 -1.153112,0.04441 -1.244764,1.527535 0.07993,0.420608 h 1.012437 l 0.946147,-1.322916 h 0.94551 l 0.377407,-0.358797 -0.05769,-0.699534 z"
           id="path16" /><path
           style="fill:#ff6058;fill-opacity:1;stroke-width:0.264583"
           d="m 58.303892,50.683977 c -0.09556,0 -0.889309,0.116025 -0.889309,0.116025 l -0.256342,0.683268 -0.801992,0.110482 -0.529166,0.529167 h -0.969026 l -0.353891,0.665861 h -0.942737 l -0.115596,-0.26643 0.683979,-0.399431 0.109771,-0.529167 1.058333,-0.172649 0.264583,-0.621101 h 1.058334 L 56.9895,50.270835 h 1.083485 z"
           id="path17" /><path
           style="fill:#ff6058;fill-opacity:1;stroke-width:0.264583"
           d="m 76.199999,51.212006 1.058333,-0.232355 0.264584,-0.609142 c 0,0 0.891561,-0.02511 0.974947,-0.0063 0.08339,0.01883 0.347969,0.307702 0.347969,0.307702 l -0.668239,0.251193 -0.390094,1.287364 -0.463963,-0.684501 z"
           id="path18" /></g></g></g></svg>
